<svg xmlns="http://www.w3.org/2000/svg" width="180" height="71" viewBox="0 0 180 71" fill="none">
  <g clip-path="url(#clip0_1_98)">
    <path d="M35.2632 48.8931C38.2185 46.5902 40.8704 43.6886 43.1451 40.2655C45.4161 36.8388 47.1175 32.8317 48.1901 28.3545C49.2701 23.8552 49.5068 19.8187 48.9003 16.3552C48.2789 12.8513 46.9991 9.87265 45.0869 7.49631C44.092 6.25856 42.9528 5.17874 41.6841 4.25685H41.6878C41.1478 3.85284 40.5745 3.48922 39.9753 3.15499C39.9199 3.12194 39.8607 3.09255 39.8052 3.0595C39.6055 2.95299 39.4057 2.84647 39.2023 2.74363C38.7511 2.51591 38.2924 2.29554 37.8153 2.10088C36.1916 1.43609 34.4717 0.962296 32.6741 0.668468C22.414 -1.22305 10.4081 1.50221 10.4081 1.50221L7.17544 15.1322L0.728641 41.3931C0.295895 43.2002 0.055481 44.8052 0.0110968 46.1605C-0.0332873 47.5635 0.107263 48.838 0.440144 49.9509C1.08371 52.0701 2.46702 53.6237 4.56047 54.5676C5.17815 54.8358 5.85131 55.0708 6.55406 55.2655C7.24572 55.4528 8.01134 55.6034 8.85464 55.7136C9.87548 55.8164 11.0443 55.8789 12.3425 55.9082C13.6555 55.9339 14.6838 55.945 15.4901 55.945C18.83 55.945 22.2513 55.3463 25.6651 54.16C29.0679 52.9773 32.2969 51.2107 35.2632 48.9004V48.8931ZM20.0062 9.78817C20.0062 9.78817 20.0099 9.78817 20.0136 9.7845C20.217 9.74777 26.956 8.52838 31.8678 10.3134C33.2955 10.8349 34.3533 11.485 35.2669 12.833C36.2138 14.2323 36.8278 16.1532 37.083 18.5406C37.3456 20.983 37.0275 24.1123 36.1324 27.8439C35.2336 31.5903 34.039 34.7452 32.5854 37.2171C31.1392 39.6742 29.5414 41.6686 27.84 43.1414C26.1608 44.5922 24.3854 45.6389 22.5731 46.2523C20.7311 46.873 18.9151 47.1889 17.173 47.1889H14.7281C13.9662 47.1889 13.2746 47.0971 12.6791 46.9097C12.1909 46.7592 11.8247 46.5351 11.5621 46.2192C11.4881 46.1274 11.3291 45.8262 11.5362 44.9741L19.4957 11.8266C19.6622 11.1251 19.9914 9.8653 20.0099 9.79552L20.0062 9.78817Z" fill="white"/>
    <path d="M112.37 35.3219C113.209 31.8327 113.394 28.9238 112.928 26.6796C112.451 24.3988 111.545 22.2024 110.18 20.8949C108.823 19.5947 107.143 18.7022 105.187 18.2431C101.362 17.3469 97.39 17.3653 93.3066 18.2394C91.2058 18.6912 89.1863 19.558 87.3037 20.8288C85.4284 22.0922 83.6753 24.2445 82.1403 26.4666C81.223 27.7999 80.4278 29.3718 79.7584 31.1642C79.8619 27.8146 79.1703 24.8763 77.6575 22.5917C76.5553 21.0308 75.0943 19.793 73.3079 18.9042C71.5288 18.0227 69.4094 17.571 67.0201 17.571H66.3839C66.1731 17.571 65.9327 17.5967 65.6405 17.6518C63.155 17.8134 60.7212 18.4084 58.4059 19.4257C56.0942 20.4431 53.9194 22.1106 51.985 23.7781L51.5115 24.296L51.6706 24.9314C51.9628 25.879 52.4288 26.5768 53.0576 27.0139L53.1242 27.0543C54.3743 27.7191 55.9056 27.7117 57.5959 27.304C58.3578 27.1204 59.1382 26.8963 59.9112 26.6356C60.6436 26.3858 61.387 26.1728 62.1082 26.0002C62.811 25.8312 63.5064 25.7247 64.1314 25.6733H64.9562C65.6479 25.6733 66.2471 25.7357 66.739 25.8459C67.2198 25.9598 67.6526 26.1287 68.0076 26.3344C68.9915 26.9588 69.587 27.9541 69.8311 29.3718C69.9901 30.3415 70.0123 31.447 69.8829 32.6664C67.8597 32.0457 65.6405 31.7298 63.2807 31.7298C61.3907 31.7298 59.4933 31.9539 57.6402 32.3983C55.7909 32.8464 54.0377 33.5258 52.4251 34.422C50.6793 35.4321 49.2553 36.6441 48.2086 38.0104C47.0324 39.4061 46.1891 41.1617 45.6861 43.2332L45.5751 43.7033C45.0869 45.9511 45.1609 47.8941 45.7823 49.4367C46.178 50.7001 46.8068 51.7542 47.6538 52.5623C48.4749 53.3483 49.4514 53.9984 50.5129 54.4685C51.5448 55.0047 52.6618 55.3757 53.8417 55.5667C54.9809 55.7503 56.1053 55.8458 57.1853 55.8458H58.1618C58.4946 55.8458 58.8386 55.8164 59.153 55.765C61.535 55.5006 63.8207 54.8321 65.9438 53.7853C68.0631 52.7422 70.016 51.3612 71.747 49.6864C73.6925 47.8133 75.3051 45.6132 76.5812 43.1047L75.908 45.8336C75.135 49.0437 75.4531 52.2317 76.9326 53.7082C78.3824 55.1553 80.7755 55.8899 84.0414 55.8899H84.6406L84.685 55.3243C84.7072 55.0341 84.7664 54.586 84.8662 53.9873C84.9476 53.4438 85.0919 52.6835 85.299 51.7249C85.5061 50.7589 85.8094 48.6911 86.1275 47.1742L88.9792 35.3035C89.4785 33.2173 90.0888 31.5352 90.7952 30.2827C91.4943 29.0486 92.2525 28.0717 93.0477 27.3812C93.8281 26.709 94.6197 26.2499 95.4075 26.0222C97.046 25.5521 98.6327 25.5484 100.072 26.0149C100.726 26.2279 101.262 26.6392 101.71 27.271C102.169 27.9211 102.453 28.8576 102.553 30.0476C102.661 31.2854 102.461 32.9639 101.969 35.028L99.0951 46.5975C98.322 49.8076 98.6845 52.1803 100.164 53.6605C101.614 55.1076 103.981 55.8421 107.199 55.8421H107.717L112.366 35.3035L112.37 35.3219ZM54.3114 45.2459C54.304 44.7097 54.3558 44.2028 54.4668 43.7437C54.5444 43.4132 54.6147 43.2663 54.648 43.2075L54.6924 43.1083C54.8329 42.7006 55.0142 42.315 55.2361 41.9661C55.4469 41.6282 55.6984 41.3196 55.998 41.0332C56.7784 40.2472 57.7993 39.6595 59.0568 39.2775C59.6116 39.0902 60.2034 38.958 60.8174 38.8882C61.4573 38.8148 62.1193 38.778 62.7925 38.778C63.6062 38.778 64.4125 38.8295 65.1819 38.9286C65.9512 39.0278 66.6391 39.127 67.2494 39.2224C67.5712 39.3253 67.8597 39.4024 68.1075 39.4538C68.1815 39.4722 68.2518 39.4869 68.322 39.5016C68.126 40.1847 67.856 40.9193 67.5194 41.6943C67.0978 42.6602 66.506 43.6189 65.7441 44.5665C65.3927 45.0476 64.9969 45.4994 64.5753 45.9034C64.1647 46.2927 63.695 46.6306 63.1365 46.9318C62.0084 47.6333 60.7804 48.0079 59.497 48.0593L59.3638 48.0777C59.2529 48.1034 59.0346 48.1365 58.6056 48.1365C57.422 48.1365 56.5232 47.9822 55.9315 47.6737C55.3582 47.3799 54.9624 47.0273 54.722 46.5902C54.452 46.1715 54.3188 45.7344 54.3114 45.2496V45.2459Z" fill="white"/>
    <path d="M123.388 14.7465C124.102 15.1652 124.927 15.3746 125.848 15.3746C127.897 15.3746 129.746 14.3939 131.355 12.4473C132.054 11.5658 132.527 10.6145 132.768 9.61553C132.997 8.65691 132.993 7.73503 132.749 6.87191C132.49 5.95736 131.932 5.24116 131.126 4.77103C129.639 3.76467 127.697 3.82711 125.763 4.85183C124.768 5.38073 123.902 6.11897 123.207 7.03718C122.515 7.87092 122.038 8.82954 121.786 9.88365C121.553 10.8496 121.565 11.7605 121.816 12.5942C122.071 13.461 122.585 14.1735 123.388 14.7465Z" fill="white"/>
    <path d="M139.818 40.8789C141.168 41.114 142.806 41.2352 144.689 41.2352C145.92 41.2352 147.418 41.0919 149.135 40.8055C150.877 40.519 152.608 39.9864 154.279 39.2225C155.966 38.4548 157.534 37.386 158.943 36.0381C160.382 34.6608 161.385 32.8464 161.91 30.6537C162.45 28.4059 162.465 26.0516 161.843 24.4135C161.225 22.7864 160.249 21.4495 158.936 20.4321C157.649 19.4404 156.166 18.7095 154.523 18.2541C152.896 17.806 151.339 17.5783 149.889 17.5783C147.263 17.5783 144.726 18.0852 142.344 19.0842C139.98 20.0759 137.828 21.4275 135.934 23.1096C134.044 24.8249 132.35 27.2306 131.018 29.4967C129.687 31.7555 128.696 34.22 128.074 36.8167C127.445 39.4318 127.305 41.9183 127.656 44.1992C127.73 44.6913 127.83 45.1725 127.945 45.6389C127.564 46.4066 126.713 47.1926 126.713 47.1926C126.41 47.4864 126.036 47.7141 125.485 47.9088C124.941 48.0998 124.438 48.1548 123.983 48.074C123.595 48.0043 123.307 47.7949 123.081 47.4129C122.944 47.1926 122.77 46.6012 123.107 45.2019L127.804 25.7467C128.17 24.2299 128.481 22.9848 128.733 22.0482C128.98 21.1189 129.199 20.3697 129.38 19.8151C129.572 19.2164 129.735 18.7426 129.868 18.39L130.179 17.5783H129.262C126.036 17.5783 123.377 18.2872 121.357 19.6865C119.319 21.0969 117.895 23.4328 117.13 26.6282L112.41 45.852C112.092 47.1815 111.981 48.4781 112.074 49.7085C112.174 50.9756 112.54 52.0995 113.157 53.0471C113.783 54.0094 114.678 54.7697 115.817 55.3022C116.686 55.7099 117.736 55.9193 118.935 55.9193C119.305 55.9193 119.693 55.9009 120.074 55.8605C120.991 55.8017 121.816 55.6291 122.548 55.3463C124.782 54.6558 127.475 53.1205 129.661 49.8076C129.746 49.9472 129.831 50.0868 129.924 50.219C131.118 51.982 132.683 53.374 134.565 54.3656C136.452 55.3573 138.623 55.8605 141.023 55.8605C143.746 55.8605 146.446 55.3132 149.042 54.2371C151.62 53.1683 154.009 51.6734 156.129 49.8113L156.85 49.2236L156.388 48.6066C156.003 47.659 155.522 46.9905 154.938 46.5865C153.861 45.7601 152.241 45.7271 150.488 46.3331C149.76 46.5865 148.99 46.8436 148.188 47.0934C147.404 47.3395 146.512 47.5672 145.539 47.7618C144.593 47.9565 143.605 48.0557 142.606 48.0557C142.081 48.0557 141.5 47.9492 140.875 47.7435C140.295 47.5525 139.74 47.1632 139.226 46.5865C138.701 45.9952 138.283 45.1615 137.987 44.1037C137.724 43.1708 137.661 41.9661 137.805 40.5153C138.294 40.6071 138.956 40.7247 139.818 40.8752V40.8789ZM139.629 33.2724C140.217 31.8547 140.883 30.6684 141.615 29.7244C142.444 28.652 143.276 27.8182 144.09 27.2489C144.9 26.6833 145.676 26.2903 146.405 26.081C147.167 25.8643 147.814 25.7321 148.306 25.6843C150.148 25.5851 151.465 25.9341 152.179 26.7017C152.881 27.462 153.059 28.3508 152.715 29.4306C152.253 30.9732 151.465 32.0347 150.307 32.6701C149.094 33.3385 147.762 33.7499 146.349 33.8931C144.903 34.0401 143.487 34.007 142.133 33.7866C141.116 33.6213 140.276 33.4487 139.629 33.2761V33.2724Z" fill="white"/>
    <path d="M171.423 0.27179H170.838L170.783 0.822718C170.746 1.17531 170.683 1.64911 170.587 2.25146C170.502 2.81708 170.358 3.56267 170.165 4.47721C169.962 5.42481 169.703 6.66256 169.388 8.17578L160.382 45.8519C160.06 47.1815 159.949 48.478 160.046 49.7084C160.145 50.9756 160.512 52.0995 161.126 53.0434C161.754 54.0057 162.649 54.766 163.785 55.3022C164.654 55.7099 165.708 55.9192 166.907 55.9192C167.273 55.9192 167.665 55.9009 168.042 55.8605C169.814 55.7503 171.245 55.2141 172.303 54.2812C173.309 53.3923 174.075 52.4411 174.574 51.4641C175.155 50.3438 175.569 49.0767 175.798 47.6884L176.135 45.6463L174.681 47.1889C174.419 47.4717 174.004 47.7104 173.453 47.9051C172.91 48.0961 172.41 48.1512 171.952 48.0704C171.563 48.0006 171.278 47.7912 171.049 47.4092C170.912 47.1852 170.735 46.6012 171.071 45.1982L179.601 9.51637C180.37 6.30629 180.011 3.92996 178.528 2.45347C177.078 1.00636 174.685 0.27179 171.419 0.27179H171.423Z" fill="white"/>
     </g>
  <defs>
    <clipPath id="clip0_1_98">
      <rect width="180" height="71" fill="white"/>
    </clipPath>
  </defs>
</svg>